<svg width="22" height="22" viewBox="0 0 22 22" fill="none" xmlns="http://www.w3.org/2000/svg">
<path fill-rule="evenodd" clip-rule="evenodd" d="M11 0C11.5523 0 12 0.447715 12 1V5C12 5.55228 11.5523 6 11 6C10.4477 6 10 5.55228 10 5V1C10 0.447715 10.4477 0 11 0Z" fill="currentColor"/>
<path fill-rule="evenodd" clip-rule="evenodd" d="M11 16C11.5523 16 12 16.4477 12 17V21C12 21.5523 11.5523 22 11 22C10.4477 22 10 21.5523 10 21V17C10 16.4477 10.4477 16 11 16Z" fill="currentColor"/>
<path fill-rule="evenodd" clip-rule="evenodd" d="M3.22307 3.22289C3.61359 2.83236 4.24676 2.83236 4.63728 3.22289L7.46728 6.05289C7.85781 6.44341 7.85781 7.07658 7.46728 7.4671C7.07676 7.85762 6.44359 7.85762 6.05307 7.4671L3.22307 4.6371C2.83254 4.24658 2.83254 3.61341 3.22307 3.22289Z" fill="currentColor"/>
<path fill-rule="evenodd" clip-rule="evenodd" d="M14.5331 14.5329C14.9237 14.1424 15.5568 14.1424 15.9473 14.5329L18.7773 17.3629C19.1679 17.7534 19.1679 18.3866 18.7773 18.7771C18.3868 19.1676 17.7537 19.1676 17.3631 18.7771L14.5331 15.9471C14.1426 15.5566 14.1426 14.9234 14.5331 14.5329Z" fill="currentColor"/>
<path fill-rule="evenodd" clip-rule="evenodd" d="M0 11C0 10.4477 0.447715 10 1 10H5C5.55228 10 6 10.4477 6 11C6 11.5523 5.55228 12 5 12H1C0.447715 12 0 11.5523 0 11Z" fill="currentColor"/>
<path fill-rule="evenodd" clip-rule="evenodd" d="M16 11C16 10.4477 16.4477 10 17 10H21C21.5523 10 22 10.4477 22 11C22 11.5523 21.5523 12 21 12H17C16.4477 12 16 11.5523 16 11Z" fill="currentColor"/>
<path fill-rule="evenodd" clip-rule="evenodd" d="M7.46728 14.5329C7.85781 14.9234 7.85781 15.5566 7.46728 15.9471L4.63728 18.7771C4.24676 19.1676 3.61359 19.1676 3.22307 18.7771C2.83254 18.3866 2.83254 17.7534 3.22307 17.3629L6.05307 14.5329C6.44359 14.1424 7.07676 14.1424 7.46728 14.5329Z" fill="currentColor"/>
<path fill-rule="evenodd" clip-rule="evenodd" d="M18.7773 3.22289C19.1679 3.61341 19.1679 4.24658 18.7773 4.6371L15.9473 7.4671C15.5568 7.85762 14.9237 7.85762 14.5331 7.4671C14.1426 7.07658 14.1426 6.44341 14.5331 6.05289L17.3631 3.22289C17.7537 2.83236 18.3868 2.83236 18.7773 3.22289Z" fill="currentColor"/>
</svg>
