    <svg
      width="25"
      height="23"
      viewBox="0 0 25 23"
      fill="none"
      xmlns="http://www.w3.org/2000/svg"
    >
      <path
        d="M12.1023 4.09434L12.5 4.61631L12.8977 4.09434C13.3467 3.50511 14.1203 2.59492 15.107 1.83616C16.098 1.07414 17.2577 0.5 18.4896 0.5C21.7477 0.5 24.5 3.51743 24.5 7.35679C24.5 9.09447 23.923 10.7448 22.8829 12.0185L22.8514 12.057L22.8282 12.101C22.828 12.1012 22.8275 12.1018 22.8266 12.1028L22.8162 12.113L22.8065 12.1237C22.7297 12.2088 22.6604 12.2761 22.5827 12.3495L22.5826 12.3494L22.5776 12.3543L22.4749 12.454L22.4748 12.454L22.4696 12.4592L12.5148 22.4105C12.5148 22.4105 12.5148 22.4105 12.5148 22.4105C12.512 22.4133 12.5098 22.4145 12.508 22.4152C12.5058 22.4161 12.5031 22.4167 12.5 22.4167C12.497 22.4167 12.4943 22.4161 12.4922 22.4153C12.4904 22.4145 12.4881 22.4133 12.4851 22.4103C12.4851 22.4103 12.485 22.4102 12.485 22.4102L2.8514 12.7965L2.84929 12.7941L2.8488 12.7934L2.81049 12.7272L2.7541 12.6754C1.3261 11.3645 0.5 9.43873 0.5 7.35679C0.5 3.51743 3.2524 0.5 6.5104 0.5C7.74226 0.5 8.90201 1.07414 9.89297 1.83616C10.8797 2.59492 11.6533 3.50511 12.1023 4.09434Z"
        stroke="currentColor"
      />
    </svg>